<svg xmlns="http://www.w3.org/2000/svg" viewBox="430 430 220 220"><defs><style>.cls-2{fill:#00cfff;}.cls-3{fill:#116af8;}</style></defs><polygon class="cls-2" points="625.53 535.79 625.53 482.86 599.5 456.83 546.58 456.82 546.58 472.35 557.38 483.14 580.6 483.16 550.26 513.49 568.89 532.11 599.21 501.78 599.22 524.98 610 535.76 625.53 535.79"/><polygon class="cls-3" points="538.14 456.82 538.14 509.73 512.12 535.75 459.2 535.77 459.2 520.24 470 509.44 511.83 509.44 511.83 467.61 522.62 456.82 538.14 456.82"/><polygon class="cls-3" points="538.14 623.18 538.14 570.27 512.12 544.25 459.2 544.24 459.2 559.76 470 570.56 511.83 570.56 511.83 612.39 522.62 623.18 538.14 623.18"/><polygon class="cls-3" points="546.58 623.18 546.58 570.27 572.6 544.25 625.53 544.24 625.53 559.76 614.73 570.56 572.89 570.56 572.89 612.39 562.11 623.18 546.58 623.18"/></svg>
