<svg id="Layer_1" data-name="Layer 1" xmlns="http://www.w3.org/2000/svg" viewBox="0 0 1920 1080"><defs><style>.cls-1{fill:#fff;}.cls-2{fill:#00cfff;}.cls-3{fill:#116af8;}.cls-4{fill:#010921;}</style></defs><rect class="cls-1" width="1920" height="1080"/><polygon class="cls-2" points="625.53 535.79 625.53 482.86 599.5 456.83 546.58 456.82 546.58 472.35 557.38 483.14 580.6 483.16 550.26 513.49 568.89 532.11 599.21 501.78 599.22 524.98 610 535.76 625.53 535.79"/><polygon class="cls-3" points="538.14 456.82 538.14 509.73 512.12 535.75 459.2 535.77 459.2 520.24 470 509.44 511.83 509.44 511.83 467.61 522.62 456.82 538.14 456.82"/><polygon class="cls-3" points="538.14 623.18 538.14 570.27 512.12 544.25 459.2 544.24 459.2 559.76 470 570.56 511.83 570.56 511.83 612.39 522.62 623.18 538.14 623.18"/><polygon class="cls-3" points="546.58 623.18 546.58 570.27 572.6 544.25 625.53 544.24 625.53 559.76 614.73 570.56 572.89 570.56 572.89 612.39 562.11 623.18 546.58 623.18"/><polygon class="cls-4" points="756.71 589.74 756.71 553.27 710.89 553.27 710.89 589.74 683.17 589.74 683.17 493.37 710.89 493.37 710.89 529.55 756.71 529.55 756.71 493.37 784.28 493.37 784.28 589.74 756.71 589.74"/><path class="cls-4" d="M837.51,508.64c12.3,0,20.31,3.41,25.8,7.71V510h25.05v79.76H863.31v-6.37c-5.49,4.3-13.65,7.71-25.8,7.71-26.1,0-41.52-14.83-41.52-41.22s15.42-41.22,41.52-41.22m25.8,28.17c-3.71-3.26-9.64-5.78-18.54-5.78-14.82,0-22.53,6.52-22.53,18.83s7.71,18.83,22.53,18.83c8.9,0,14.83-2.52,18.54-5.78Z"/><path class="cls-4" d="M987.4,510v79.76H962.49v-9.93c-8.89,6.23-19.72,11.27-31,11.27-19.56,0-29.8-9.79-29.8-25.21V510h25.06v46.11c0,6.52,5.34,10.82,13.2,10.82,8.3,0,17.19-5.19,22.53-8.6V510Z"/><path class="cls-4" d="M1043,508.64c7.11,0,22.09.45,28.61,1.19V529c-6.22-.74-21.79-1.18-28.61-1.18-13,0-19.28,1.63-19.28,6.08,0,12.6,51.3,1.63,51.3,33.06,0,16.46-13.93,24.17-42.84,24.17-7.27,0-26.25-.45-33.51-1.19V570.77c7.71.73,24.76,1.18,33.8,1.18,10.53,0,16.31-1,16.31-5.49,0-13.19-51.3-.29-51.3-33.21,0-17.2,13.94-24.61,45.52-24.61"/><path class="cls-4" d="M1086.74,589.74V493.37h59.9c28.16,0,40.32,10.23,40.32,35.44,0,22.53-13.64,33.21-41.51,33.21h-31v27.72Zm57.82-72.65h-30.1v24.76h30.1c7.86,0,13.49-3.41,13.49-12.3s-5.63-12.46-13.49-12.46"/><path class="cls-4" d="M1236,508.64c12.3,0,20.31,3.41,25.79,7.71V510h25.06v79.76h-25.06v-6.37c-5.48,4.3-13.64,7.71-25.79,7.71-26.1,0-41.52-14.83-41.52-41.22s15.42-41.22,41.52-41.22m25.79,28.17c-3.7-3.26-9.63-5.78-18.53-5.78-14.83,0-22.54,6.52-22.54,18.83s7.71,18.83,22.54,18.83c8.9,0,14.83-2.52,18.53-5.78Z"/><path class="cls-4" d="M1334.93,510H1365v18.53h-30.09v31.43c0,6.52,3,9.93,8.45,9.93H1365v19.87h-32c-12.6,0-23-11.12-23-24.61V528.51h-14.83V510H1310V488.92h24.91Z"/><path class="cls-4" d="M1375.11,589.74V488.92h25.05v31.14c8.75-6.23,19.57-11.42,30.84-11.42,19.57,0,29.8,9.79,29.8,25.35v55.75h-24.91V543.63c0-6.52-5.48-10.82-13.34-10.82-8.15,0-17.2,5.19-22.39,8.6v48.33Z"/></svg>